<svg width="1200" height="1200" viewBox="0 0 1200 1200" fill="none" xmlns="http://www.w3.org/2000/svg">
<circle cx="600" cy="600" r="600" fill="white"/>
<path d="M352.5 557H265V505.5C265 498.167 260.833 494.5 252.5 494.5H235C226.667 494.5 222.5 498.167 222.5 505.5V689.5C222.5 696.833 226.667 700.5 235 700.5H252.5C260.833 700.5 265 696.833 265 689.5V640H352.5V696C352.5 737.333 328 758 279 758H208.5C159.5 758 135 737.333 135 696V499C135 457.667 159.5 437 208.5 437H279C328 437 352.5 457.667 352.5 499V557Z" fill="#121C2A"/>
<path d="M440.059 822.5H398.059V761H435.059C443.059 761 449.392 759.667 454.059 757C458.725 754.333 462.725 748 466.059 738H433.559L365.059 508.5H454.059L484.559 660.5L511.559 508.5H597.059L534.559 753C527.559 776 516.892 793.333 502.559 805C488.225 816.667 467.392 822.5 440.059 822.5Z" fill="#121C2A"/>
<path d="M739.992 684.5V639C739.992 631.667 735.826 628 727.492 628H679.492C654.826 628 637.326 622.667 626.992 612C616.992 601 611.992 585.333 611.992 565V499C611.992 457.667 636.326 437 684.992 437H753.492C802.159 437 826.492 457.667 826.492 499V537.5H738.992V510.5C738.992 503.167 734.826 499.5 726.492 499.5H711.992C703.659 499.5 699.492 503.167 699.492 510.5V558C699.492 565.333 703.659 569 711.992 569H758.992C783.659 569 801.159 574.167 811.492 584.5C822.159 594.833 827.492 610 827.492 630V696C827.492 737.333 803.159 758 754.492 758H686.492C637.492 758 612.992 737.333 612.992 696V657.5H700.492V684.5C700.492 691.833 704.659 695.5 712.992 695.5H727.492C735.826 695.5 739.992 691.833 739.992 684.5Z" fill="#121C2A"/>
<path d="M931.098 508.5H992.098C1041.1 508.5 1065.6 529.167 1065.6 570.5V655.5H938.098V688.5C938.098 695.833 942.264 699.5 950.598 699.5H972.598C980.931 699.5 985.098 695.5 985.098 687.5V673.5H1065.6V696C1065.6 737.333 1041.1 758 992.098 758H931.098C882.098 758 857.598 737.333 857.598 696V570.5C857.598 529.167 882.098 508.5 931.098 508.5ZM938.098 609.5H985.098V578C985.098 570.667 980.931 567 972.598 567H950.598C942.264 567 938.098 570.667 938.098 578V609.5Z" fill="#121C2A"/>
</svg>
