<svg width="910" height="430" viewBox="0 0 910 430" fill="none" xmlns="http://www.w3.org/2000/svg">
<path d="M17 42.78H69.7V391.62H17V42.78ZM107.313 42.78H160.013V391.62H107.313V42.78Z" fill="#BE4BDB"/>
<path d="M408.491 189.32H348.991V154.3C348.991 149.313 346.158 146.82 340.491 146.82H328.591C322.925 146.82 320.091 149.313 320.091 154.3V279.42C320.091 284.407 322.925 286.9 328.591 286.9H340.491C346.158 286.9 348.991 284.407 348.991 279.42V245.76H408.491V283.84C408.491 311.947 391.831 326 358.511 326H310.571C277.251 326 260.591 311.947 260.591 283.84V149.88C260.591 121.773 277.251 107.72 310.571 107.72H358.511C391.831 107.72 408.491 121.773 408.491 149.88V189.32ZM468.031 369.86H439.471V328.04H464.631C470.071 328.04 474.378 327.133 477.551 325.32C480.725 323.507 483.445 319.2 485.711 312.4H463.611L417.031 156.34H477.551L498.291 259.7L516.651 156.34H574.791L532.291 322.6C527.531 338.24 520.278 350.027 510.531 357.96C500.785 365.893 486.618 369.86 468.031 369.86ZM671.986 276.02V245.08C671.986 240.093 669.153 237.6 663.486 237.6H630.846C614.073 237.6 602.173 233.973 595.146 226.72C588.346 219.24 584.946 208.587 584.946 194.76V149.88C584.946 121.773 601.493 107.72 634.586 107.72H681.166C714.259 107.72 730.806 121.773 730.806 149.88V176.06H671.306V157.7C671.306 152.713 668.473 150.22 662.806 150.22H652.946C647.279 150.22 644.446 152.713 644.446 157.7V190C644.446 194.987 647.279 197.48 652.946 197.48H684.906C701.679 197.48 713.579 200.993 720.606 208.02C727.859 215.047 731.486 225.36 731.486 238.96V283.84C731.486 311.947 714.939 326 681.846 326H635.606C602.286 326 585.626 311.947 585.626 283.84V257.66H645.126V276.02C645.126 281.007 647.959 283.5 653.626 283.5H663.486C669.153 283.5 671.986 281.007 671.986 276.02ZM801.938 156.34H843.418C876.738 156.34 893.398 170.393 893.398 198.5V256.3H806.698V278.74C806.698 283.727 809.531 286.22 815.198 286.22H830.158C835.824 286.22 838.658 283.5 838.658 278.06V268.54H893.398V283.84C893.398 311.947 876.738 326 843.418 326H801.938C768.618 326 751.958 311.947 751.958 283.84V198.5C751.958 170.393 768.618 156.34 801.938 156.34ZM806.698 225.02H838.658V203.6C838.658 198.613 835.824 196.12 830.158 196.12H815.198C809.531 196.12 806.698 198.613 806.698 203.6V225.02Z" fill="#212529"/>
</svg>
