<?xml version="1.0" standalone="no"?>
<!DOCTYPE svg PUBLIC "-//W3C//DTD SVG 20010904//EN"
 "http://www.w3.org/TR/2001/REC-SVG-20010904/DTD/svg10.dtd">
<svg version="1.0" xmlns="http://www.w3.org/2000/svg"
 width="700.000000pt" height="700.000000pt" viewBox="0 0 700.000000 700.000000"
 preserveAspectRatio="xMidYMid meet">
<metadata>
Created by potrace 1.14, written by Peter Selinger 2001-2017
</metadata>
<g transform="translate(0.000000,700.000000) scale(0.100000,-0.100000)"
fill="#000000" stroke="none">
<path d="M965 4518 c-3 -7 -4 -465 -3 -1018 l3 -1005 158 -3 157 -3 0 1021 0
1020 -155 0 c-115 0 -157 -3 -160 -12z"/>
<path d="M1490 3510 l0 -1020 160 0 160 0 0 1020 0 1020 -160 0 -160 0 0
-1020z"/>
<path d="M2558 4140 c-45 -13 -105 -51 -125 -79 -41 -56 -43 -77 -43 -555 0
-427 2 -464 19 -501 23 -50 53 -78 116 -107 48 -22 61 -23 285 -23 264 0 305
7 369 61 62 54 76 103 76 269 l0 140 -177 3 -177 2 -3 -117 -3 -118 -63 -3
c-38 -2 -69 2 -78 9 -12 9 -14 77 -14 395 0 433 -6 404 80 404 77 0 80 -5 80
-135 l0 -115 181 0 181 0 -4 153 c-3 133 -7 158 -27 200 -27 55 -67 89 -134
111 -39 13 -92 16 -280 15 -128 0 -244 -4 -259 -9z"/>
<path d="M4442 4135 c-67 -21 -110 -55 -137 -109 -24 -48 -25 -57 -25 -252 0
-225 8 -265 63 -322 47 -48 106 -62 271 -62 78 0 148 -5 156 -10 19 -12 27
-181 11 -223 -11 -27 -13 -28 -73 -25 l-63 3 -3 73 -3 72 -179 0 -180 0 0 -98
c0 -123 18 -186 66 -235 60 -59 103 -69 324 -75 127 -3 218 0 262 8 85 15 150
55 180 112 22 41 23 53 23 264 l0 221 -30 48 c-21 35 -45 56 -80 74 -46 24
-61 26 -210 30 -88 1 -166 8 -172 13 -9 7 -13 44 -13 119 0 124 7 139 71 139
69 0 79 -11 79 -85 l0 -65 181 0 182 0 -5 114 c-8 170 -48 237 -164 272 -65
19 -470 19 -532 -1z"/>
<path d="M3300 3864 c0 -6 236 -802 261 -881 10 -32 12 -33 70 -33 65 0 71 -8
39 -50 -18 -24 -25 -25 -129 -28 l-111 -4 0 -125 0 -125 153 4 c142 3 156 5
209 31 67 33 121 90 155 163 21 47 273 1004 273 1039 0 13 -26 15 -169 15
l-169 0 -10 -47 c-5 -27 -29 -158 -53 -293 l-43 -244 -58 284 c-31 157 -57
288 -58 293 0 8 -360 10 -360 1z"/>
<path d="M5428 3856 c-71 -19 -122 -58 -149 -113 -23 -47 -24 -56 -27 -343 -4
-346 1 -382 60 -446 65 -71 104 -79 363 -79 208 0 223 1 270 23 103 48 134
102 135 235 l0 87 -160 0 -160 0 0 -39 c0 -57 -19 -71 -94 -71 -35 0 -67 5
-74 12 -7 7 -12 42 -12 85 l0 73 250 0 250 0 0 208 c0 228 -7 258 -66 314 -57
53 -99 61 -329 65 -150 2 -223 -1 -257 -11z m320 -238 c7 -7 12 -40 12 -80 l0
-68 -90 0 -90 0 0 68 c0 40 5 73 12 80 16 16 140 16 156 0z"/>
</g>
</svg>
