<?xml version="1.0" standalone="no"?>
<!DOCTYPE svg PUBLIC "-//W3C//DTD SVG 20010904//EN"
 "http://www.w3.org/TR/2001/REC-SVG-20010904/DTD/svg10.dtd">
<svg version="1.0" xmlns="http://www.w3.org/2000/svg"
 width="700.000000pt" height="700.000000pt" viewBox="0 0 700.000000 700.000000"
 preserveAspectRatio="xMidYMid meet">
<metadata>
Created by potrace 1.14, written by Peter Selinger 2001-2017
</metadata>
<g transform="translate(0.000000,700.000000) scale(0.100000,-0.100000)"
fill="#000000" stroke="none">
<path d="M3220 6994 c-182 -20 -243 -29 -360 -50 -786 -142 -1524 -572 -2041
-1189 -436 -522 -692 -1103 -796 -1810 -25 -173 -25 -717 0 -890 70 -477 202
-877 416 -1258 281 -503 667 -917 1146 -1229 449 -293 903 -461 1470 -545 152
-22 705 -26 855 -5 823 113 1504 445 2065 1007 493 492 830 1119 959 1783 55
283 61 346 61 692 0 346 -6 409 -61 692 -148 762 -575 1482 -1179 1989 -517
433 -1119 699 -1800 795 -114 15 -640 29 -735 18z m-1494 -2554 c148 -19 241
-76 291 -178 28 -57 28 -58 31 -284 l3 -228 -250 0 -251 0 0 165 c0 206 1 205
-124 205 -68 0 -88 -4 -107 -19 l-24 -19 -3 -561 -2 -561 24 -25 c23 -23 33
-25 111 -25 125 0 125 0 125 195 l0 155 250 0 250 0 0 -198 c0 -224 -9 -273
-63 -344 -18 -24 -56 -57 -85 -74 -87 -52 -142 -59 -492 -59 -299 0 -319 1
-385 22 -101 33 -156 77 -197 160 l-33 68 0 680 c0 633 1 683 18 720 55 123
141 182 292 204 82 12 533 13 621 1z m2832 -9 c118 -31 196 -95 233 -189 18
-47 23 -84 27 -214 l4 -158 -256 0 -256 0 0 94 c0 117 -8 126 -115 126 -116 0
-115 2 -115 -202 0 -145 3 -174 17 -190 14 -16 34 -18 187 -18 283 -1 379 -23
454 -104 73 -79 77 -101 77 -441 0 -271 -2 -305 -19 -349 -40 -105 -142 -175
-282 -196 -88 -12 -528 -13 -616 0 -103 15 -175 46 -228 99 -70 70 -82 114
-88 309 l-4 162 250 0 250 0 4 -96 c4 -119 9 -124 120 -124 118 0 118 1 118
200 0 215 17 200 -232 200 -280 0 -374 25 -445 118 -61 81 -68 124 -68 432 0
233 3 284 17 331 36 114 144 196 288 218 87 13 622 7 678 -8z m-1855 -693 c88
-440 120 -589 125 -583 3 2 39 199 82 437 l76 433 247 3 c196 2 246 0 242 -10
-2 -7 -86 -332 -185 -722 -100 -390 -192 -735 -205 -767 -49 -121 -129 -215
-224 -264 -86 -43 -160 -55 -353 -55 l-178 0 0 175 0 175 135 0 c163 0 192 9
229 72 14 25 26 50 26 56 0 8 -29 12 -94 12 -81 0 -95 2 -100 18 -111 369
-386 1296 -386 1303 0 5 105 9 253 9 l252 0 58 -292z m3228 278 c127 -27 207
-85 251 -181 22 -48 23 -61 26 -352 l3 -303 -370 0 -371 0 0 -112 c0 -149 -1
-148 141 -148 100 0 109 2 123 22 10 14 16 44 16 75 l0 53 230 0 230 0 0 -103
c0 -166 -41 -257 -141 -320 -83 -51 -132 -59 -400 -64 -368 -8 -489 16 -577
111 -77 84 -77 80 -77 621 l0 480 27 51 c30 58 94 119 146 141 82 34 155 41
417 42 187 0 279 -3 326 -13z"/>
<path d="M5510 3689 c-13 -5 -28 -15 -32 -22 -4 -7 -8 -60 -8 -119 l0 -108
140 0 140 0 0 108 c0 140 -5 146 -129 149 -47 2 -97 -2 -111 -8z"/>
</g>
</svg>
