<?xml version="1.0" standalone="no"?>
<!DOCTYPE svg PUBLIC "-//W3C//DTD SVG 20010904//EN"
 "http://www.w3.org/TR/2001/REC-SVG-20010904/DTD/svg10.dtd">
<svg version="1.0" xmlns="http://www.w3.org/2000/svg"
 width="700.000000pt" height="700.000000pt" viewBox="0 0 700.000000 700.000000"
 preserveAspectRatio="xMidYMid meet">
<metadata>
Created by potrace 1.14, written by Peter Selinger 2001-2017
</metadata>
<g transform="translate(0.000000,700.000000) scale(0.100000,-0.100000)"
fill="#000000" stroke="none">
<path d="M1041 4434 c-123 -33 -201 -101 -238 -207 -17 -48 -18 -101 -18 -717
0 -665 0 -665 22 -720 30 -73 70 -120 133 -154 92 -50 136 -57 400 -63 402 -9
528 13 625 111 80 80 88 111 93 369 l4 217 -261 0 -261 0 0 -159 c0 -197 4
-191 -120 -191 -80 0 -90 2 -104 22 -14 20 -16 91 -16 573 0 482 2 553 16 573
14 20 24 22 104 22 124 0 120 6 120 -196 l0 -164 261 0 261 0 -4 223 c-5 252
-12 285 -79 361 -44 49 -115 88 -197 105 -83 17 -673 14 -741 -5z"/>
<path d="M3823 4435 c-125 -34 -201 -101 -237 -209 -13 -41 -16 -97 -16 -332
0 -322 9 -374 75 -451 75 -88 174 -112 453 -113 100 0 182 -4 193 -10 18 -10
19 -23 19 -180 0 -198 5 -190 -114 -190 -101 0 -106 6 -106 126 l0 94 -260 0
-260 0 0 -137 c0 -212 33 -309 128 -378 92 -66 201 -85 502 -85 327 0 442 23
531 107 26 24 57 67 70 96 23 50 24 63 27 327 5 351 -4 397 -91 488 -73 74
-115 85 -384 91 -205 5 -234 8 -250 24 -15 15 -18 39 -21 170 -3 202 -4 201
108 205 112 4 120 -4 120 -129 l0 -89 258 2 257 3 -1 151 c-2 173 -15 234 -67
304 -38 52 -107 92 -192 115 -82 21 -663 21 -742 0z"/>
<path d="M2130 4028 c0 -7 89 -310 198 -673 l197 -660 93 -3 c50 -1 92 -5 92
-8 0 -3 -9 -23 -20 -44 -31 -61 -62 -71 -227 -78 l-143 -5 0 -178 0 -179 173
0 c195 0 279 14 372 59 98 49 185 156 236 290 22 61 379 1447 379 1474 0 15
-24 17 -250 17 -137 0 -250 -1 -250 -3 0 -6 -150 -852 -153 -860 -1 -4 -40
183 -86 415 -46 233 -86 429 -89 436 -6 18 -522 18 -522 0z"/>
<path d="M5295 4025 c-132 -23 -231 -97 -271 -201 -18 -46 -19 -81 -19 -524
l0 -475 28 -57 c76 -154 202 -198 577 -198 316 0 426 25 516 114 71 71 88 126
89 276 l0 115 -235 0 -235 0 -5 -65 c-6 -83 -21 -92 -141 -88 -118 4 -119 5
-119 139 l0 109 370 0 370 0 0 275 c0 280 -7 349 -40 415 -46 88 -151 151
-283 169 -108 15 -514 12 -602 -4z m423 -351 c20 -14 22 -23 22 -120 l0 -104
-130 0 -130 0 0 104 c0 132 4 136 130 136 61 0 92 -4 108 -16z"/>
</g>
</svg>
